<mxfile host="app.diagrams.net" modified="2023-11-09T15:40:11.232Z" agent="Mozilla/5.0 (Windows NT 10.0; Win64; x64; rv:109.0) Gecko/20100101 Firefox/119.0" etag="CAmXWzMHs76IfdPRy4HZ" version="22.0.8" type="device">
  <diagram name="Seite-1" id="Buf-V82mNLHq6IPBUSCK">
    <mxGraphModel dx="1051" dy="647" grid="1" gridSize="10" guides="1" tooltips="1" connect="1" arrows="1" fold="1" page="1" pageScale="1" pageWidth="827" pageHeight="1169" math="0" shadow="0">
      <root>
        <mxCell id="0" />
        <mxCell id="1" parent="0" />
        <mxCell id="MnK_LTy1g6O20AKHmdyq-2" value="" style="ellipse;whiteSpace=wrap;html=1;strokeColor=none;fillColor=#006666;opacity=20;enumerate=0;comic=0;treeFolding=0;treeMoving=0;backgroundOutline=0;fixDash=0;sketch=1;curveFitting=1;jiggle=2;" vertex="1" parent="1">
          <mxGeometry x="353" y="75" width="320" height="265" as="geometry" />
        </mxCell>
        <mxCell id="10NsXPcwAe8AEz9bs2Zb-1" value="UML-Diagramme" style="rounded=0;whiteSpace=wrap;html=1;shadow=1;" parent="1" vertex="1">
          <mxGeometry x="280" y="20" width="160" height="40" as="geometry" />
        </mxCell>
        <mxCell id="10NsXPcwAe8AEz9bs2Zb-2" value="Verhaltensdiagramme" style="rounded=0;whiteSpace=wrap;html=1;shadow=1;" parent="1" vertex="1">
          <mxGeometry x="450" y="110" width="160" height="40" as="geometry" />
        </mxCell>
        <mxCell id="10NsXPcwAe8AEz9bs2Zb-3" value="Strukturdiagramme" style="rounded=0;whiteSpace=wrap;html=1;shadow=1;" parent="1" vertex="1">
          <mxGeometry x="120" y="120" width="160" height="40" as="geometry" />
        </mxCell>
        <mxCell id="10NsXPcwAe8AEz9bs2Zb-5" value="Objektdiagramm" style="rounded=0;whiteSpace=wrap;html=1;shadow=1;" parent="1" vertex="1">
          <mxGeometry x="50" y="298.75" width="160" height="40" as="geometry" />
        </mxCell>
        <mxCell id="10NsXPcwAe8AEz9bs2Zb-6" value="Klassendiagramm" style="rounded=0;whiteSpace=wrap;html=1;shadow=1;" parent="1" vertex="1">
          <mxGeometry x="190" y="230" width="160" height="40" as="geometry" />
        </mxCell>
        <mxCell id="10NsXPcwAe8AEz9bs2Zb-7" value="..." style="rounded=0;whiteSpace=wrap;html=1;shadow=1;" parent="1" vertex="1">
          <mxGeometry x="30" y="238.75" width="50" height="35" as="geometry" />
        </mxCell>
        <mxCell id="10NsXPcwAe8AEz9bs2Zb-12" value="..." style="rounded=0;whiteSpace=wrap;html=1;strokeColor=none;fillColor=none;" parent="1" vertex="1">
          <mxGeometry x="580" y="200" width="60" height="30" as="geometry" />
        </mxCell>
        <mxCell id="10NsXPcwAe8AEz9bs2Zb-13" value="" style="endArrow=none;html=1;rounded=0;entryX=0.25;entryY=1;entryDx=0;entryDy=0;exitX=0.75;exitY=0;exitDx=0;exitDy=0;" parent="1" source="10NsXPcwAe8AEz9bs2Zb-3" target="10NsXPcwAe8AEz9bs2Zb-1" edge="1">
          <mxGeometry width="50" height="50" relative="1" as="geometry">
            <mxPoint x="350" y="150" as="sourcePoint" />
            <mxPoint x="400" y="100" as="targetPoint" />
          </mxGeometry>
        </mxCell>
        <mxCell id="10NsXPcwAe8AEz9bs2Zb-14" value="" style="endArrow=none;html=1;rounded=0;entryX=0.75;entryY=1;entryDx=0;entryDy=0;exitX=0.25;exitY=0;exitDx=0;exitDy=0;" parent="1" source="10NsXPcwAe8AEz9bs2Zb-2" target="10NsXPcwAe8AEz9bs2Zb-1" edge="1">
          <mxGeometry width="50" height="50" relative="1" as="geometry">
            <mxPoint x="390" y="320" as="sourcePoint" />
            <mxPoint x="440" y="270" as="targetPoint" />
          </mxGeometry>
        </mxCell>
        <mxCell id="10NsXPcwAe8AEz9bs2Zb-15" value="" style="endArrow=none;html=1;rounded=0;exitX=0.5;exitY=0;exitDx=0;exitDy=0;" parent="1" source="10NsXPcwAe8AEz9bs2Zb-7" target="10NsXPcwAe8AEz9bs2Zb-3" edge="1">
          <mxGeometry width="50" height="50" relative="1" as="geometry">
            <mxPoint x="390" y="378.75" as="sourcePoint" />
            <mxPoint x="160" y="218.75" as="targetPoint" />
          </mxGeometry>
        </mxCell>
        <mxCell id="10NsXPcwAe8AEz9bs2Zb-16" value="" style="endArrow=none;html=1;rounded=0;exitX=0.5;exitY=0;exitDx=0;exitDy=0;" parent="1" source="10NsXPcwAe8AEz9bs2Zb-5" target="10NsXPcwAe8AEz9bs2Zb-3" edge="1">
          <mxGeometry width="50" height="50" relative="1" as="geometry">
            <mxPoint x="390" y="378.75" as="sourcePoint" />
            <mxPoint x="200" y="218.75" as="targetPoint" />
          </mxGeometry>
        </mxCell>
        <mxCell id="10NsXPcwAe8AEz9bs2Zb-17" value="" style="endArrow=none;html=1;rounded=0;exitX=0.5;exitY=0;exitDx=0;exitDy=0;" parent="1" source="10NsXPcwAe8AEz9bs2Zb-6" target="10NsXPcwAe8AEz9bs2Zb-3" edge="1">
          <mxGeometry width="50" height="50" relative="1" as="geometry">
            <mxPoint x="390" y="378.75" as="sourcePoint" />
            <mxPoint x="240" y="218.75" as="targetPoint" />
          </mxGeometry>
        </mxCell>
        <mxCell id="10NsXPcwAe8AEz9bs2Zb-19" value="" style="endArrow=none;html=1;rounded=0;exitX=0.25;exitY=0;exitDx=0;exitDy=0;" parent="1" source="10NsXPcwAe8AEz9bs2Zb-12" target="10NsXPcwAe8AEz9bs2Zb-2" edge="1">
          <mxGeometry width="50" height="50" relative="1" as="geometry">
            <mxPoint x="390" y="320" as="sourcePoint" />
            <mxPoint x="440" y="270" as="targetPoint" />
          </mxGeometry>
        </mxCell>
        <mxCell id="ug7vKBZlFeEZkN51nedK-1" value="Anwendungsfalldiagramm" style="rounded=0;whiteSpace=wrap;html=1;shadow=1;" parent="1" vertex="1">
          <mxGeometry x="380" y="200" width="170" height="40" as="geometry" />
        </mxCell>
        <mxCell id="ug7vKBZlFeEZkN51nedK-2" value="" style="endArrow=none;html=1;rounded=0;" parent="1" source="ug7vKBZlFeEZkN51nedK-1" edge="1" target="10NsXPcwAe8AEz9bs2Zb-2">
          <mxGeometry width="50" height="50" relative="1" as="geometry">
            <mxPoint x="390" y="425" as="sourcePoint" />
            <mxPoint x="526" y="150" as="targetPoint" />
          </mxGeometry>
        </mxCell>
        <mxCell id="lR8ZUNeMJSLDlaDTR2mW-1" value="..." style="rounded=0;whiteSpace=wrap;html=1;strokeColor=none;fillColor=none;" parent="1" vertex="1">
          <mxGeometry x="414" y="280" width="60" height="30" as="geometry" />
        </mxCell>
        <mxCell id="lR8ZUNeMJSLDlaDTR2mW-2" value="" style="endArrow=none;html=1;rounded=0;" parent="1" source="lR8ZUNeMJSLDlaDTR2mW-1" target="ug7vKBZlFeEZkN51nedK-1" edge="1">
          <mxGeometry width="50" height="50" relative="1" as="geometry">
            <mxPoint x="390" y="350" as="sourcePoint" />
            <mxPoint x="440" y="300" as="targetPoint" />
          </mxGeometry>
        </mxCell>
      </root>
    </mxGraphModel>
  </diagram>
</mxfile>
